<?xml version="1.0" encoding="utf-8"?>
<!-- Generator: Adobe Illustrator 22.1.0, SVG Export Plug-In . SVG Version: 6.00 Build 0)  -->
<svg version="1.1" id="Layer_1" xmlns="http://www.w3.org/2000/svg" xmlns:xlink="http://www.w3.org/1999/xlink" x="100%" y="100%"
	 viewBox="0 0 693.6 419.4" style="enable-background:new 0 0 693.6 419.4;" xml:space="preserve">
<style type="text/css">
	.st0{fill:#FFE81F;}
</style>
<g id="Layer_2_1_">
	<g>
		<path class="st0" d="M131,209.8l9.5,27.8c5.1,15,9.7,27.1,10.3,27.1c0,0,0,0,0,0c0.7-0.6,19.2-54.4,19.2-54.4h35.9l-43.3,126.2
			h-25c0,0-26.6-76.9-26.5-77.2l-27.8,76.3H58.6L15.8,209.8l35.7,0c0,0,19.6,55.5,19.8,55.5c0,0,0,0,0,0l19.5-55.5L131,209.8
			 M3.6,201.1l3.9,11.6l42.8,125.7l2,5.9h6.3h24.7h6.1l2.1-5.7l19.3-53c1.7,4.8,3.5,10.1,5.3,15.3c6.6,19.3,13.3,38.5,13.3,38.5
			l2,5.9h6.2h25h6.2l2-5.9l43.3-126.2l4-11.6h-12.2H170h-6.2l-2,5.9c-3.2,9.4-7.6,21.9-11.2,32.4c-0.6-1.6-1.1-3.3-1.7-5l-9.5-27.8
			l-2-5.9H131H90.9h-6.2l-2.1,5.8l-11.4,32.4c-3.8-10.6-8.1-22.9-11.5-32.4l-2.1-5.8l-6.2,0l-35.7,0L3.6,201.1L3.6,201.1z"/>
	</g>
	<g>
		<path class="st0" d="M684.1,209.3l-0.1,33.1c0,0-35.6-0.1-53.8-0.1c-6,0-10.1,0-10.3,0c-3.1,0.6-5.1,7.2-4.2,10.1
			c0.4,1.5,3.7,6.3,7.2,10.7c3.5,4.4,9.3,11.7,12.9,16.1c9.1,11.3,10.3,13.6,11.2,20.1c1.4,10.6-3.6,22-12.9,29.6
			c-9.3,7.6-8.9,7.6-77.9,7.6c-1,0-2,0-3,0c-42,0-64.2-0.4-67.4-1.1c-5.7-1.3-14.9-8.8-39.1-32c-8.7-8.3-16.7-15.6-17.1-15.6
			c0,0,0,0,0,0l-0.3,48.7l-39.2-0.2l-0.2-125.5h49.4h38c26.3,1,44.2,27.2,40.6,43.9c-0.8,3.8-2.9,9.3-4.6,12.2
			c-3.5,6-12.4,13.7-19.7,17c-2.7,1.2-4.9,2.6-4.9,3.1c0,1.9,8.8,10.5,12.1,11.9c2.8,1.2,11,1.4,47.2,1.4c4.2,0,8.1,0,11.6,0
			c36.3,0,34.5-0.3,37.3-6.3c2-4.2,0.5-6.7-13.4-22.3c-17.5-17.4-15.7-25.8-15.8-32c-0.3-7.4,5.6-30.6,35.8-30.6L684.1,209.3
			 M449.2,267.3c16.8,0,20.2-0.3,23.8-1.8c12.1-5.2,12.7-20.7,1.1-27.6c-2.5-1.5-5.8-1.8-24-1.9l-21-0.1c0.2,0.2-0.1,30.1-0.1,30.1
			S434.3,267.3,449.2,267.3 M692.8,200.6h-8.8h-80.6c-17.5,0-27.9,6.9-33.5,12.7c-9.1,9.4-11.3,21.3-11.1,26.9c0,0.5,0,0.9,0,1.4
			c-0.1,9.1,1.3,19.4,18.2,36.3c3.3,3.8,8.9,10.1,11.1,13.2c-4.6,0.6-16.4,0.6-28.7,0.6h-5.2l-6.3,0c-21.7,0-40.1-0.1-43.8-0.8
			c-0.5-0.3-1.3-0.9-2.1-1.6c7.5-4.6,15.1-11.8,18.7-17.9c2.2-3.7,4.6-10.1,5.6-14.8c2.2-10.5-1.4-23.2-9.8-33.9
			c-9.8-12.5-24-20-39-20.6l-0.2,0h-0.2h-38h-49.4h-8.8l0,8.8l0.2,125.5l0,8.7l8.7,0l39.2,0.2l8.7,0l0.1-8.7l0.2-29.2
			c0.8,0.8,1.6,1.5,2.5,2.4c26.5,25.4,35.3,32.4,43.2,34.2c2.2,0.5,5.7,1.3,69.4,1.3h3c34.4,0,51.7,0,62-1
			c11.8-1.1,15.6-3.8,21.2-8.4l0.2-0.2c11.7-9.5,17.8-23.8,16.1-37.4c-1.1-8.9-3.5-12.5-13-24.4l-2.8-3.5c-3.3-4.1-7.3-9.2-10-12.5
			c-2.2-2.7-3.9-5.1-4.9-6.7c1.3,0,3.1,0,5.4,0c17.9,0,53.4,0.1,53.7,0.1l8.7,0l0-8.7l0.1-33.1L692.8,200.6L692.8,200.6z
			 M437.8,258.3c0-2.2,0-4.7,0-7.2c0-2.2,0-4.4,0-6.4l12.2,0.1c7,0,17.6,0.1,19.6,0.7c2.6,1.6,4.1,4.1,3.9,6.6
			c-0.1,1.4-0.7,3.9-4.2,5.4c-1.9,0.8-5,1.1-20.3,1.1C444.4,258.6,440.6,258.4,437.8,258.3L437.8,258.3z"/>
	</g>
	<g>
		<path class="st0" d="M310.3,208.8l44,126.6l-35.8,0.2l-6-19l-64.1-0.5l-5.7,19l-35.5-0.4l43.4-125.8L310.3,208.8 M281.4,227.4
			c-0.1,0.4-5.6,15.5-11.2,30.7c-5.6,15.3-11.2,30.6-11.3,30.7c0,0,0,0,0,0l0,0c0,0,0,0,0,0c0.1,0,20-0.1,32.7-0.1
			c6,0,10.3,0,10.4,0c0,0,0,0,0,0s0,0,0,0c0,0,0,0,0,0C301.9,288.1,281.5,228.1,281.4,227.4C281.4,227.4,281.4,227.4,281.4,227.4
			L281.4,227.4C281.4,227.4,281.4,227.4,281.4,227.4 M316.5,200.1l-6.2,0l-59.6,0.1l-6.2,0l-2,5.9L199,331.8l-4,11.5l12.1,0.1
			l35.5,0.4l6.6,0.1l1.9-6.3l3.8-12.7l51.2,0.4l4,12.9l1.9,6.2l6.4,0l35.8-0.2l12.2-0.1l-4-11.5l-44-126.6L316.5,200.1L316.5,200.1z
			 M271.6,279.9c1.7-4.5,3.9-10.6,6.9-18.9c0.9-2.6,1.8-5,2.6-7.1c0.7,2.1,1.5,4.5,2.4,7c0.7,2.1,3.8,11.2,6.5,19
			C282,279.9,276.1,279.9,271.6,279.9L271.6,279.9z"/>
	</g>
	<g>
		<path class="st0" d="M325.1,57.7V89h-62.5v95.5h-37.3V88.9l-73,0.2c-8.8,0-10,7-10,9.7c0,3.3,2.2,6.6,14,21.6
			c7.7,9.7,14.7,19.4,15.6,21.5c5.1,11.7-1.5,29.8-13.4,37.2c-8.5,5.3-7.1,5.4-70.2,5.4c-3.2,0-6.7,0-10.3,0H10v-35.1h106.9l3.2-2.2
			c2.1-1.5,3.4-3.5,3.8-6.3c0.7-4,0.3-4.5-12.9-19.4c-15.6-17.6-17.3-20.8-16.4-32C95.5,76.6,106.9,58,126.9,58L325.1,57.7
			 M333.8,49l-8.7,0l-198.2,0.3c-11.4,0-22,4.9-29.9,13.9C90.7,70.5,86.5,80,85.9,88.8c-1.1,14.8,2.3,20.1,18.6,38.4
			c4.7,5.3,9.2,10.4,10.7,12.5c0,0.1,0,0.1-0.1,0.2c0,0,0,0-0.1,0.1l-0.9,0.6H10H1.3v8.7v35.1v8.7H10h68h5.4h4.9
			c31.1,0,46.5,0,55.6-0.7c10.4-0.8,13.7-2.5,18.6-5.6l0.6-0.4c15.6-9.6,23.6-32.6,16.8-48.1c-2.1-4.8-15.3-21.6-16.8-23.5
			c-4.1-5.2-11-13.9-12.1-16.4c0-0.2,0.1-0.4,0.1-0.6c0.2,0,0.5-0.1,1.1-0.1l64.3-0.2v86.8v8.7h8.7h37.3h8.7v-8.7V97.7h53.8h8.7V89
			V57.7V49L333.8,49z"/>
	</g>
	<g>
		<path class="st0" d="M426.7,58.8l43.9,126.9l-35.8-0.2l-5.8-19l-63.8-0.3l-5.7,18.3H323l43.4-125.7L426.7,58.8 M375.6,139.1
			l43.5-0.1c0,0,0,0,0,0c0.1,0-21.1-62.5-21.3-62.5l0,0C397.6,76.6,375.1,139.1,375.6,139.1 M432.9,50h-6.2h-60.3h-6.2l-2,5.9
			l-43.4,125.7l-4,11.6h12.3h36.4h6.4l1.9-6.1l3.8-12.1l50.9,0.2l3.9,12.9l1.9,6.1l6.4,0l35.8,0.2l12.3,0.1l-4-11.7L435,55.9
			L432.9,50L432.9,50z M387.7,130.4c2.7-7.7,6.4-18.2,9.8-27.6c3.2,9.4,6.8,19.9,9.4,27.6L387.7,130.4L387.7,130.4z"/>
	</g>
	<g>
		<path class="st0" d="M549.9,58.8c28.3,0,47.9,0.4,51.7,1.1c8.7,1.5,16.6,6.2,22.5,13.3c6.2,7.5,7.6,11.1,8.4,21.3
			c1.2,14.5-5.7,27-19.3,35.1c-4,2.4-8,4.7-9.1,5.1c-1.6,0.7-1.4,1.4,1.4,4.7c1.8,2.1,4.9,5.1,6.9,6.7l3.7,2.8l67.8,1l0.7,34.6
			h-41.6c-32.1,0-42.4-0.3-45.4-1.3c-4.5-1.5-15.4-10.7-37.4-31.7l-15.7-15l0.2,48h-40.4V58.8H549.9 M544,115.3h21.5
			c20.9,0,21.6-0.1,24.5-2.3c5.3-4,7.2-8.1,6.7-14.4c-0.6-6.5-3.1-9.9-9.4-12.6c-3.5-1.6-7-1.8-23.7-1.8H544V115.3 M549.9,50h-45.6
			h-8.7v8.7v125.7v8.7h8.7h40.4h8.8l0-8.8l-0.1-27.5l0.9,0.9c27.3,26,35.3,31.9,40.6,33.7c4.1,1.4,10.9,1.8,48.2,1.8h41.6h8.9
			l-0.2-8.9l-0.7-34.6l-0.2-8.4l-8.4-0.1l-64.9-0.9l-1.4-1.1c-0.4-0.3-1-0.8-1.5-1.3c0.5-0.3,0.9-0.6,1.3-0.8
			c16.4-9.8,25-25.6,23.5-43.3c-0.9-12-3.1-17.4-10.4-26.2c-7.2-8.7-17.1-14.5-27.8-16.4C597.2,50.2,567.2,50,549.9,50L549.9,50z
			 M552.7,92.8h10.8c15.3,0,18.3,0.3,20.2,1.1c3.5,1.5,3.9,2.3,4.2,5.4c0.3,3.1-0.1,4.4-3.2,6.7c-0.1,0.1-0.2,0.1-0.2,0.2
			c-2,0.4-9.6,0.4-19,0.4h-12.7L552.7,92.8L552.7,92.8z"/>
	</g>
</g>
</svg>
